# xmcd
#
# Track frame offsets: 
#        150
#        12167
#        24640
#        35905
#        49372
#        61132
#        74002
#        86930
#        97265
#        110132
#        122872
#        133737
#        145515
#        156432
#        170005
#        181890
#        195320
#        206690
#        217005
#        229830
#        239797
#        250477
#        262132
#        275522
#
# Disc length: 3830 seconds
#
# Revision: 9
# Processed by: cddbd v1.5.2PL0 Copyright (c) Steve Scherf et al.
# Submitted via: ExactAudioCopy v0.99pb5
#
DISCID=880ef418
DTITLE=Robert Johnson - Contracted To The Devil
DYEAR=1997
DGENRE=Blues
TTITLE0=Crossroad Blues
TTITLE1=Travelling Riverside Blues
TTITLE2=Walkin' Blues
TTITLE3=I Believe I'll Dust My Broom
TTITLE4=Hell Hound On My Trail
TTITLE5=Kind Hearted Woman Blues
TTITLE6=Ramblin' on My Mind
TTITLE7=Stop Breakin' Down Blues
TTITLE8=Come On In My Kitchen
TTITLE9=32-20 Blues
TTITLE10=From Four Until Late
TTITLE11=I'm a Steady Rollin' Man
TTITLE12=Love in Vain
TTITLE13=Terraplane Blues
TTITLE14=When You Got A Good Friend
TTITLE15=Sweet Home Chicago
TTITLE16=Dead Shrimp Blues
TTITLE17=Milkcow's Calf Blues
TTITLE18=Preachin' Blues (Up Jumped the Devil)
TTITLE19=Little Queen of Spades
TTITLE20=Malted Milk
TTITLE21=Me and the Devil Blues
TTITLE22=They're Red Hot
TTITLE23=Last Fair Deal Gone Down
EXTD=
EXTT0=
EXTT1=
EXTT2=
EXTT3=
EXTT4=
EXTT5=
EXTT6=
EXTT7=
EXTT8=
EXTT9=
EXTT10=
EXTT11=
EXTT12=
EXTT13=
EXTT14=
EXTT15=
EXTT16=
EXTT17=
EXTT18=
EXTT19=
EXTT20=
EXTT21=
EXTT22=
EXTT23=
PLAYORDER=
